<?xml version="1.0" encoding="utf-8"?>
<!-- Generator: Adobe Illustrator 16.0.0, SVG Export Plug-In . SVG Version: 6.00 Build 0)  -->
<!DOCTYPE svg PUBLIC "-//W3C//DTD SVG 1.1//EN" "http://www.w3.org/Graphics/SVG/1.1/DTD/svg11.dtd">
<svg version="1.1" id="Layer_1" xmlns="http://www.w3.org/2000/svg" xmlns:xlink="http://www.w3.org/1999/xlink" x="0px" y="0px"
	 width="70px" height="100px" viewBox="0 0 70 100" enable-background="new 0 0 70 100" xml:space="preserve">
<g>
	<path fill="#FFFFFF" d="M7.479,0.066c0,13.888,0,27.776,0,41.89c0.341-0.377,0.554-0.606,0.762-0.84
		c5.911-6.694,13.296-10.722,22.22-11.812c15.6-1.907,30.671,6.978,36.516,21.417c1.459,3.606,2.347,7.332,2.566,11.217
		c0.014,0.186,0.094,0.362,0.141,0.545c0,12.529,0,25.057,0,37.584c-2.375,0-4.746,0-7.119,0c0-4.81,0-9.618,0-14.664
		c-0.852,0.979-1.49,1.759-2.178,2.492c-0.688,0.738-1.386,1.477-2.141,2.146c-8.602,7.65-18.646,10.633-30.006,8.59
		C14.073,96.074,3.034,84.998,0.342,71.023c-0.248-1.275-0.442-2.562-0.66-3.844c0-22.372,0-44.744,0-67.114
		C2.285,0.066,4.883,0.066,7.479,0.066z M34.932,36.28C19.555,36.239,7.167,48.499,6.786,63.42
		C6.392,79,18.941,91.736,34.397,92.023c15.718,0.289,28.707-12.25,28.705-27.861C63.098,48.732,50.531,36.28,34.932,36.28z"/>
</g>
</svg>
